<?xml version="1.0" standalone="no"?>
<!DOCTYPE svg PUBLIC "-//W3C//DTD SVG 20010904//EN"
 "http://www.w3.org/TR/2001/REC-SVG-20010904/DTD/svg10.dtd">
<svg version="1.0" xmlns="http://www.w3.org/2000/svg"
 width="300.000000pt" height="300.000000pt" viewBox="0 0 300.000000 300.000000"
 preserveAspectRatio="xMidYMid meet">
<metadata>
Created by potrace 1.11, written by Peter Selinger 2001-2013
</metadata>
<g transform="translate(0.000000,300.000000) scale(0.100000,-0.100000)"
fill="#000000" stroke="none">
<path d="M2163 2665 c-78 -34 -177 -214 -283 -515 -104 -297 -467 -1280 -475
-1288 -6 -6 -3 -14 -75 218 -34 107 -90 303 -126 435 -36 132 -97 353 -136
490 -38 138 -85 319 -104 402 -18 84 -40 166 -49 183 -51 98 -211 87 -257 -18
-31 -70 -15 -159 102 -572 43 -151 110 -393 149 -538 120 -441 271 -911 334
-1042 27 -54 39 -69 77 -88 51 -26 87 -28 135 -8 43 18 76 68 143 219 45 99
104 253 401 1057 38 102 101 277 141 390 72 204 111 293 189 425 31 53 41 80
41 114 0 58 -32 108 -84 132 -49 22 -80 23 -123 4z"/>
</g>
</svg>
